<svg xmlns="http://www.w3.org/2000/svg" width="72" height="99" viewBox="0 0 72 99"><path d="M9 18h9v9H9zm9 0h9v9h-9zm9 0h9v9h-9zm9 0h9v9h-9zm9 0h9v9h-9zm9 0h9v9h-9zM0 27h9v9H0zm0 9h9v9H0zm0 9h9v9H0zm0 9h9v9H0zm0 9h9v9H0zm54-36h9v9h-9zm0 9h9v9h-9zm0 9h9v9h-9zm0 9h9v9h-9zm-9 0h9v9h-9zm-9 0h9v9h-9zM0 18h9v9H0zm36 18h9v9h-9zm-9 0h9v9h-9zm-9 0h9v9h-9zm0 9h9v9h-9zm0 9h9v9h-9zm0 9h9v9h-9zm0 9h9v9h-9zm18 0h9v9h-9zm9 0h9v9h-9zm9 0h9v9h-9zm9 0h9v9h-9zM0 72h9v9H0zm27 0h9v9h-9zM0 0h72v9H0zm0 90h72v9H0z" fill-rule="evenodd" clip-rule="evenodd" fill="#BDBA9B"/></svg>