<svg xmlns="http://www.w3.org/2000/svg" xmlns:xlink="http://www.w3.org/1999/xlink" width="728" height="107" viewBox="0 0 728 107"><defs><path id="a" d="M0 0h180v117H0z"/></defs><clipPath id="b"><use xlink:href="#a" overflow="visible"/></clipPath><g clip-path="url(#b)" fill-rule="evenodd" clip-rule="evenodd" fill="#674235"><path d="M139.5 36h27l-9 9-9 9-9 9h-18l-9 9h27l9-9 9-9 9-9 9-9 9-9h-63l-9 9-9 9-9 9-9 9-9 9-9 9-9 9h9l9-9 9-9 9-9 9-9 9-9 9-9h9z"/><path d="M130.5 81h-36l9-9 9-9 9-9h18l9-9h-27l-9 9-9 9-9 9-9 9-9 9h54l9-9zm72-63h-72l9-9h72zm-90 90h-72l9-9h72z"/><path d="M211.5 36h27l-9 9-9 9-9 9h-18l-9 9h27l9-9 9-9 9-9 9-9 9-9h-63l-9 9-9 9-9 9-9 9-9 9-9 9-9 9h9l9-9 9-9 9-9 9-9 9-9 9-9h9z"/><path d="M202.5 81h-36l9-9 9-9 9-9h18l9-9h-27l-9 9-9 9-9 9-9 9-9 9h54l9-9zm72-63h-72l9-9h72zm-90 90h-72l9-9h72zm-189-72h27l-9 9-9 9-9 9h-18l-9 9h27l9-9 9-9 9-9 9-9 9-9h-63l-9 9-9 9-9 9-9 9-9 9-9 9-9 9h9l9-9 9-9 9-9 9-9 9-9 9-9h9z"/><path d="M-13.5 81h-36l9-9 9-9 9-9h18l9-9h-27l-9 9-9 9-9 9-9 9-9 9h54l9-9zm72-63h-72l9-9h72zm-90 90h-72l9-9h72z"/><path d="M67.5 36h27l-9 9-9 9-9 9h-18l-9 9h27l9-9 9-9 9-9 9-9 9-9h-63l-9 9-9 9-9 9-9 9-9 9-9 9-9 9h9l9-9 9-9 9-9 9-9 9-9 9-9h9z"/><path d="M58.5 81h-36l9-9 9-9 9-9h18l9-9h-27l-9 9-9 9-9 9-9 9-9 9h54l9-9zm72-63h-72l9-9h72zm-90 90h-72l9-9h72z"/></g><defs><path id="c" d="M180 0h184v125H180z"/></defs><clipPath id="d"><use xlink:href="#c" overflow="visible"/></clipPath><g clip-path="url(#d)" fill-rule="evenodd" clip-rule="evenodd" fill="#674235"><path d="M220.5 36h-27l9 9 9 9 9 9h18l9 9h-27l-9-9-9-9-9-9-9-9-9-9h63l9 9 9 9 9 9 9 9 9 9 9 9 9 9h-9l-9-9-9-9-9-9-9-9-9-9-9-9h-9z"/><path d="M229.5 81h36l-9-9-9-9-9-9h-18l-9-9h27l9 9 9 9 9 9 9 9 9 9h-54l-9-9zm-72-63h72l-9-9h-72zm90 90h72l-9-9h-72z"/><path d="M148.5 36h-27l9 9 9 9 9 9h18l9 9h-27l-9-9-9-9-9-9-9-9-9-9h63l9 9 9 9 9 9 9 9 9 9 9 9 9 9h-9l-9-9-9-9-9-9-9-9-9-9-9-9h-9z"/><path d="M157.5 81h36l-9-9-9-9-9-9h-18l-9-9h27l9 9 9 9 9 9 9 9 9 9h-54l-9-9zm-72-63h72l-9-9h-72zm90 90h72l-9-9h-72zm189-72h-27l9 9 9 9 9 9h18l9 9h-27l-9-9-9-9-9-9-9-9-9-9h63l9 9 9 9 9 9 9 9 9 9 9 9 9 9h-9l-9-9-9-9-9-9-9-9-9-9-9-9h-9z"/><path d="M373.5 81h36l-9-9-9-9-9-9h-18l-9-9h27l9 9 9 9 9 9 9 9 9 9h-54l-9-9zm-72-63h72l-9-9h-72zm90 90h72l-9-9h-72z"/><path d="M292.5 36h-27l9 9 9 9 9 9h18l9 9h-27l-9-9-9-9-9-9-9-9-9-9h63l9 9 9 9 9 9 9 9 9 9 9 9 9 9h-9l-9-9-9-9-9-9-9-9-9-9-9-9h-9z"/><path d="M301.5 81h36l-9-9-9-9-9-9h-18l-9-9h27l9 9 9 9 9 9 9 9 9 9h-54l-9-9zm-72-63h72l-9-9h-72zm90 90h72l-9-9h-72z"/></g><defs><path id="e" d="M548 0h180v117H548z"/></defs><clipPath id="f"><use xlink:href="#e" overflow="visible"/></clipPath><g clip-path="url(#f)" fill-rule="evenodd" clip-rule="evenodd" fill="#674235"><path d="M588.5 36h-27l9 9 9 9 9 9h18l9 9h-27l-9-9-9-9-9-9-9-9-9-9h63l9 9 9 9 9 9 9 9 9 9 9 9 9 9h-9l-9-9-9-9-9-9-9-9-9-9-9-9h-9z"/><path d="M597.5 81h36l-9-9-9-9-9-9h-18l-9-9h27l9 9 9 9 9 9 9 9 9 9h-54l-9-9zm-72-63h72l-9-9h-72zm90 90h72l-9-9h-72z"/><path d="M516.5 36h-27l9 9 9 9 9 9h18l9 9h-27l-9-9-9-9-9-9-9-9-9-9h63l9 9 9 9 9 9 9 9 9 9 9 9 9 9h-9l-9-9-9-9-9-9-9-9-9-9-9-9h-9z"/><path d="M525.5 81h36l-9-9-9-9-9-9h-18l-9-9h27l9 9 9 9 9 9 9 9 9 9h-54l-9-9zm-72-63h72l-9-9h-72zm90 90h72l-9-9h-72zm189-72h-27l9 9 9 9 9 9h18l9 9h-27l-9-9-9-9-9-9-9-9-9-9h63l9 9 9 9 9 9 9 9 9 9 9 9 9 9h-9l-9-9-9-9-9-9-9-9-9-9-9-9h-9z"/><path d="M741.5 81h36l-9-9-9-9-9-9h-18l-9-9h27l9 9 9 9 9 9 9 9 9 9h-54l-9-9zm-72-63h72l-9-9h-72zm90 90h72l-9-9h-72z"/><path d="M660.5 36h-27l9 9 9 9 9 9h18l9 9h-27l-9-9-9-9-9-9-9-9-9-9h63l9 9 9 9 9 9 9 9 9 9 9 9 9 9h-9l-9-9-9-9-9-9-9-9-9-9-9-9h-9z"/><path d="M669.5 81h36l-9-9-9-9-9-9h-18l-9-9h27l9 9 9 9 9 9 9 9 9 9h-54l-9-9zm-72-63h72l-9-9h-72zm90 90h72l-9-9h-72z"/></g><defs><path id="g" d="M364 0h184v125H364z"/></defs><clipPath id="h"><use xlink:href="#g" overflow="visible"/></clipPath><g clip-path="url(#h)" fill-rule="evenodd" clip-rule="evenodd" fill="#674235"><path d="M507.5 36h27l-9 9-9 9-9 9h-18l-9 9h27l9-9 9-9 9-9 9-9 9-9h-63l-9 9-9 9-9 9-9 9-9 9-9 9-9 9h9l9-9 9-9 9-9 9-9 9-9 9-9h9z"/><path d="M498.5 81h-36l9-9 9-9 9-9h18l9-9h-27l-9 9-9 9-9 9-9 9-9 9h54l9-9zm72-63h-72l9-9h72zm-90 90h-72l9-9h72z"/><path d="M579.5 36h27l-9 9-9 9-9 9h-18l-9 9h27l9-9 9-9 9-9 9-9 9-9h-63l-9 9-9 9-9 9-9 9-9 9-9 9-9 9h9l9-9 9-9 9-9 9-9 9-9 9-9h9z"/><path d="M570.5 81h-36l9-9 9-9 9-9h18l9-9h-27l-9 9-9 9-9 9-9 9-9 9h54l9-9zm72-63h-72l9-9h72zm-90 90h-72l9-9h72zm-189-72h27l-9 9-9 9-9 9h-18l-9 9h27l9-9 9-9 9-9 9-9 9-9h-63l-9 9-9 9-9 9-9 9-9 9-9 9-9 9h9l9-9 9-9 9-9 9-9 9-9 9-9h9z"/><path d="M354.5 81h-36l9-9 9-9 9-9h18l9-9h-27l-9 9-9 9-9 9-9 9-9 9h54l9-9zm72-63h-72l9-9h72zm-90 90h-72l9-9h72z"/><path d="M435.5 36h27l-9 9-9 9-9 9h-18l-9 9h27l9-9 9-9 9-9 9-9 9-9h-63l-9 9-9 9-9 9-9 9-9 9-9 9-9 9h9l9-9 9-9 9-9 9-9 9-9 9-9h9z"/><path d="M426.5 81h-36l9-9 9-9 9-9h18l9-9h-27l-9 9-9 9-9 9-9 9-9 9h54l9-9zm72-63h-72l9-9h72zm-90 90h-72l9-9h72z"/></g></svg>