<svg xmlns="http://www.w3.org/2000/svg" width="315.729" height="65.406" viewBox="0 0 315.729 65.406"><path fill="#BDB99B" d="M164.265 5.771l-5.719 25.901-4.375-25.901h-9.668s-.203 41.009-1.359 55.276c-.115 1.423-.306 4.084-.306 4.084l7.139-.102s-.339-1.771-.51-2.759c-.655-3.82-.204-25.906-.204-25.906s4.803 24.204 5.404 28.864c.859.123 2.858 0 2.858 0l6.426-30.285.202 30.086h9.486l-.557-59.258h-8.817zM89.934 39.798c-.402-.797-2.358-2.992-2.363-3.532-.005-.37.782-.978 1.326-1.427 3.485-2.895 4.96-8.535 4.284-15.299-.582-5.831-3.637-11.899-9.385-12.953-3.56-.655-12.246-1.229-13.096-.816-.611 1.342-.671 59.512-.671 59.512l8.771-.152s.509-17.38.203-22.744c-.11-1.966-.36-4.327 1.633-4.29 1.877.041 3.145 3.916 3.365 5.719.178 1.439 1.076 21.468 1.076 21.468h9.735s-.188-8.511-1.14-12.188c-.45-1.742-1.438-8.745-3.738-13.298zm-11.655-7.771s-.391-19.976-.426-20.17c2.933-.748 4.482 3.68 4.414 6.663-.025 1.182.052 7.535.103 8.568.115 2.396-2.566 5.006-4.091 4.939zM199.291 5.771h-2.266L185.117 65.03h7.196s-.189-6.898.452-9.284c2.052-.174 6.834 0 6.834 0l2.879 9.284h8.322s-3.247-19.136-4.878-28.457c-1.194-6.844-6.631-30.802-6.631-30.802zm-5.609 44.157s1.72-14.957 2.144-15.804c.094-.18.356-.269.51-.102.48.621 2.345 15.905 2.345 15.905h-4.999zm78.614-2.32l-.349 7.133c-.075 3.897-3.334 2.643-3.334 2.643s.317-25.236.317-30.098c0-4.122-.124-16.32.816-16.11 2.018.45 2.026 3.353 2.125 3.956l.07 4.569 4.994.094c.441-4.837-.73-12.581-5.591-13.736-2.348-.56-4.727-.084-6.119.812-3.451 2.227-4.911 6.03-4.911 6.03-.58 3.833-1.088 40.686-.75 43.402 1.256 10.145 13.688 9.24 16.133 3.541 1.544-3.607 2.438-7.703 1.485-12.31l-4.886.074zM53.271 10.065c-.322 6.849-3.382 16.409-3.382 16.409l-1.121 2.142-6.636-22.845h-9.105s1.135 4.155 1.461 5.507c1.42 5.89 3.473 12.434 4.896 18.868 1.58 7.127 2.575 14.415 3.061 22.439.293 4.833-.205 12.546-.205 12.546l9.455.152s-.752-14.062-.887-21.061c-.158-8.108 4.589-21.011 4.589-21.011l5.435-17.44h-8.146c-.001 0 .634 3.295.585 4.294zm63.846-4.294c-.998.05-3.047.335-3.875.815-4.922 2.834-6.848 8.928-7.446 15.91-.896 10.433-1.097 21.491.815 30.797.906 4.408 3.111 10.222 6.138 11.668 1.376.654 8.049.363 8.754.188 1.194-.308 2.75-2.578 3.57-3.793 3.625-5.402 3.978-16.141 3.978-25.498 0-4.696-.195-9.396-.815-13.973-.983-7.241-2.989-16.565-11.119-16.114zm1.924 54.091l-3.18.159s-.078.021-.221-.159c-.232-.302-.219-.506-.219-.506l-.362-47.688s4.122-.572 4.194 2.649c0 0 1.279 9.595 1.416 20.043.161 12.11-1.267 25.33-1.628 25.502zm122.855-29.618c-3.146-6.332-10.975-24.473-10.975-24.473h-6.089s.452 43.267.134 47.218c-.166 2.057-.188 3.863-.308 6.123-.08 1.504-.203 6.171-.203 6.171h8.131s-.719-5.29-.99-7.904c-.834-8.08-1.688-17.14-.716-25.707 1.217 1.021 16.971 33.611 16.971 33.611-.11-44.147-.118-43.844-.038-46.56.062-2.236.404-4.51.61-6.63.218-2.179.511-6.323.511-6.323h-7.425c0 .001 1.269 23.692.387 24.474zM307.128.803s.087 3.421.153 4.403a26.391 26.391 0 0 1 0 3.594c-.235 2.965-.688 5.814-1.527 8.447-.861 2.698-1.509 5.219-2.605 7.363-.722-.797-6.876-23.806-6.876-23.806h-9.116c7.979 33.479 7.938 33.548 8.715 44.657.43 6.145.089 19.946.089 19.946h8.858s-.557-20.71.936-30.195c.23-1.463 3.724-13.128 4.763-17.52 1.036-4.392 2.697-8.651 4.042-12.667.464-1.385 1.17-4.222 1.17-4.222h-8.602zM.394.03C.266.081.179-.006.131.121c-.296.786 0 65.151 0 65.151l9.913-.088.348-20.406c.438-.562 6.463-1.574 7.391-2.111 5.412-3.127 5.195-6.055 6.26-10.177.863-3.338 1.349-7.432 1.305-11.301-.072-6.51-1.064-12.249-4.174-16.172C17.148-.069 9.303-.093.394.03zm12.78 33.246c-.398 1.542-.969 2.67-3.681 2.957L10.1 5.884c1.12-.356 3.33 1.34 3.595 2.265.486 1.705.724 20.306-.521 25.127z"/></svg>